<mxfile host="app.diagrams.net" modified="2022-09-22T19:06:51.016Z" agent="5.0 (Macintosh; Intel Mac OS X 10_15_7) AppleWebKit/537.36 (KHTML, like Gecko) Chrome/105.0.0.0 Safari/537.36" etag="CagBG_dfcsEpE6EUSubH" version="20.2.3" type="github">
  <diagram id="s64E0igG7P1JQnIiRfnE" name="Page-1">
    <mxGraphModel dx="951" dy="532" grid="1" gridSize="10" guides="1" tooltips="1" connect="1" arrows="1" fold="1" page="1" pageScale="1" pageWidth="850" pageHeight="1100" math="0" shadow="0">
      <root>
        <mxCell id="0" />
        <mxCell id="1" parent="0" />
        <mxCell id="j807-5PTp9Czgykt5-cU-1" value="Production" style="rounded=0;whiteSpace=wrap;html=1;" vertex="1" parent="1">
          <mxGeometry x="30" y="150" width="120" height="60" as="geometry" />
        </mxCell>
        <mxCell id="j807-5PTp9Czgykt5-cU-3" value="" style="edgeStyle=orthogonalEdgeStyle;rounded=0;orthogonalLoop=1;jettySize=auto;html=1;" edge="1" parent="1" source="j807-5PTp9Czgykt5-cU-2" target="j807-5PTp9Czgykt5-cU-1">
          <mxGeometry relative="1" as="geometry" />
        </mxCell>
        <mxCell id="j807-5PTp9Czgykt5-cU-2" value="Staging" style="rounded=0;whiteSpace=wrap;html=1;" vertex="1" parent="1">
          <mxGeometry x="260" y="150" width="120" height="60" as="geometry" />
        </mxCell>
        <mxCell id="j807-5PTp9Czgykt5-cU-6" value="" style="edgeStyle=orthogonalEdgeStyle;rounded=0;orthogonalLoop=1;jettySize=auto;html=1;" edge="1" parent="1" source="j807-5PTp9Czgykt5-cU-4" target="j807-5PTp9Czgykt5-cU-2">
          <mxGeometry relative="1" as="geometry" />
        </mxCell>
        <mxCell id="j807-5PTp9Czgykt5-cU-4" value="Development" style="rounded=0;whiteSpace=wrap;html=1;" vertex="1" parent="1">
          <mxGeometry x="480" y="150" width="120" height="60" as="geometry" />
        </mxCell>
        <mxCell id="j807-5PTp9Czgykt5-cU-15" value="" style="edgeStyle=orthogonalEdgeStyle;rounded=0;orthogonalLoop=1;jettySize=auto;html=1;" edge="1" parent="1" source="j807-5PTp9Czgykt5-cU-7" target="j807-5PTp9Czgykt5-cU-4">
          <mxGeometry relative="1" as="geometry" />
        </mxCell>
        <mxCell id="j807-5PTp9Czgykt5-cU-7" value="PR-1" style="text;html=1;strokeColor=none;fillColor=none;align=center;verticalAlign=middle;whiteSpace=wrap;rounded=0;" vertex="1" parent="1">
          <mxGeometry x="650" y="120" width="50" height="30" as="geometry" />
        </mxCell>
        <mxCell id="j807-5PTp9Czgykt5-cU-12" value="" style="edgeStyle=orthogonalEdgeStyle;rounded=0;orthogonalLoop=1;jettySize=auto;html=1;" edge="1" parent="1" source="j807-5PTp9Czgykt5-cU-8" target="j807-5PTp9Czgykt5-cU-4">
          <mxGeometry relative="1" as="geometry" />
        </mxCell>
        <mxCell id="j807-5PTp9Czgykt5-cU-8" value="PR-4" style="text;html=1;strokeColor=none;fillColor=none;align=center;verticalAlign=middle;whiteSpace=wrap;rounded=0;" vertex="1" parent="1">
          <mxGeometry x="645" y="210" width="60" height="30" as="geometry" />
        </mxCell>
        <mxCell id="j807-5PTp9Czgykt5-cU-14" value="" style="edgeStyle=orthogonalEdgeStyle;rounded=0;orthogonalLoop=1;jettySize=auto;html=1;" edge="1" parent="1" source="j807-5PTp9Czgykt5-cU-9" target="j807-5PTp9Czgykt5-cU-4">
          <mxGeometry relative="1" as="geometry" />
        </mxCell>
        <mxCell id="j807-5PTp9Czgykt5-cU-9" value="PR-2" style="text;html=1;strokeColor=none;fillColor=none;align=center;verticalAlign=middle;whiteSpace=wrap;rounded=0;" vertex="1" parent="1">
          <mxGeometry x="645" y="150" width="60" height="30" as="geometry" />
        </mxCell>
        <mxCell id="j807-5PTp9Czgykt5-cU-13" value="" style="edgeStyle=orthogonalEdgeStyle;rounded=0;orthogonalLoop=1;jettySize=auto;html=1;" edge="1" parent="1" target="j807-5PTp9Czgykt5-cU-4">
          <mxGeometry relative="1" as="geometry">
            <mxPoint x="645" y="195" as="sourcePoint" />
          </mxGeometry>
        </mxCell>
        <mxCell id="j807-5PTp9Czgykt5-cU-18" value="" style="edgeStyle=orthogonalEdgeStyle;rounded=0;orthogonalLoop=1;jettySize=auto;html=1;" edge="1" parent="1" source="j807-5PTp9Czgykt5-cU-16" target="j807-5PTp9Czgykt5-cU-4">
          <mxGeometry relative="1" as="geometry" />
        </mxCell>
        <mxCell id="j807-5PTp9Czgykt5-cU-16" value="QA Checks" style="text;html=1;strokeColor=none;fillColor=none;align=center;verticalAlign=middle;whiteSpace=wrap;rounded=0;" vertex="1" parent="1">
          <mxGeometry x="500" y="250" width="80" height="30" as="geometry" />
        </mxCell>
        <mxCell id="j807-5PTp9Czgykt5-cU-20" value="" style="edgeStyle=orthogonalEdgeStyle;rounded=0;orthogonalLoop=1;jettySize=auto;html=1;" edge="1" parent="1" source="j807-5PTp9Czgykt5-cU-19" target="j807-5PTp9Czgykt5-cU-2">
          <mxGeometry relative="1" as="geometry" />
        </mxCell>
        <mxCell id="j807-5PTp9Czgykt5-cU-19" value="QA Checks" style="text;html=1;strokeColor=none;fillColor=none;align=center;verticalAlign=middle;whiteSpace=wrap;rounded=0;" vertex="1" parent="1">
          <mxGeometry x="230" y="250" width="80" height="30" as="geometry" />
        </mxCell>
        <mxCell id="j807-5PTp9Czgykt5-cU-22" value="" style="edgeStyle=orthogonalEdgeStyle;rounded=0;orthogonalLoop=1;jettySize=auto;html=1;" edge="1" parent="1" source="j807-5PTp9Czgykt5-cU-21" target="j807-5PTp9Czgykt5-cU-2">
          <mxGeometry relative="1" as="geometry" />
        </mxCell>
        <mxCell id="j807-5PTp9Czgykt5-cU-24" value="" style="edgeStyle=orthogonalEdgeStyle;rounded=0;orthogonalLoop=1;jettySize=auto;html=1;entryX=0.5;entryY=0;entryDx=0;entryDy=0;" edge="1" parent="1" source="j807-5PTp9Czgykt5-cU-21" target="j807-5PTp9Czgykt5-cU-4">
          <mxGeometry relative="1" as="geometry">
            <mxPoint x="440" y="120" as="targetPoint" />
          </mxGeometry>
        </mxCell>
        <mxCell id="j807-5PTp9Czgykt5-cU-21" value="Hotfix on UAT - 1" style="text;html=1;strokeColor=none;fillColor=none;align=center;verticalAlign=middle;whiteSpace=wrap;rounded=0;" vertex="1" parent="1">
          <mxGeometry x="220" y="70" width="100" height="30" as="geometry" />
        </mxCell>
        <mxCell id="j807-5PTp9Czgykt5-cU-25" value="Release to UAT" style="text;html=1;strokeColor=none;fillColor=none;align=center;verticalAlign=middle;whiteSpace=wrap;rounded=0;" vertex="1" parent="1">
          <mxGeometry x="390" y="190" width="80" height="30" as="geometry" />
        </mxCell>
        <mxCell id="j807-5PTp9Czgykt5-cU-28" value="Release to PROD" style="text;html=1;strokeColor=none;fillColor=none;align=center;verticalAlign=middle;whiteSpace=wrap;rounded=0;" vertex="1" parent="1">
          <mxGeometry x="170" y="190" width="80" height="30" as="geometry" />
        </mxCell>
        <mxCell id="j807-5PTp9Czgykt5-cU-32" value="PR-3" style="text;html=1;strokeColor=none;fillColor=none;align=center;verticalAlign=middle;whiteSpace=wrap;rounded=0;" vertex="1" parent="1">
          <mxGeometry x="645" y="180" width="60" height="30" as="geometry" />
        </mxCell>
      </root>
    </mxGraphModel>
  </diagram>
</mxfile>
